<?xml version="1.0" encoding="UTF-8"?>
<svg width="320px" height="240px" viewBox="0 0 320 240" version="1.1" xmlns="http://www.w3.org/2000/svg" xmlns:xlink="http://www.w3.org/1999/xlink" style="background: #82E0E0;">
    <!-- Generator: Sketch 43.2 (39069) - http://www.bohemiancoding.com/sketch -->
    <title>inflights</title>
    <desc>Created with Sketch.</desc>
    <defs></defs>
    <g id="Cards" stroke="none" stroke-width="1" fill="none" fill-rule="evenodd">
        <g id="Inflights">
            <circle id="Oval" stroke="#54C3C4" stroke-width="18" fill="#FFFFFF" cx="160.265625" cy="145.089844" r="159.832031"></circle>
            <g id="inflights-large" transform="translate(56.000000, 115.000000)">
                <path d="M86.5589102,17.9925825 C81.7417862,17.9925825 77.8367356,14.0875319 77.8367356,9.27040786 C77.8367356,4.45328385 81.7417862,0.548233275 86.5589102,0.548233275 C91.3760342,0.548233275 95.2810848,4.45328385 95.2810848,9.27040786 C95.2810848,14.0875319 91.3760342,17.9925825 86.5589102,17.9925825 Z M86.5589102,13.2350327 C88.748512,13.2350327 90.523535,11.4600097 90.523535,9.27040786 C90.523535,7.08080604 88.748512,5.30578305 86.5589102,5.30578305 C84.3693084,5.30578305 82.5942854,7.08080604 82.5942854,9.27040786 C82.5942854,11.4600097 84.3693084,13.2350327 86.5589102,13.2350327 Z" id="Oval-2" fill="#0F2D9B" fill-rule="nonzero"></path>
                <path d="M195.652551,57.2061909 C193.140552,57.2061909 190.685681,56.8065607 188.287864,56.0072884 C185.890047,55.208016 183.834806,54.0662155 182.122079,52.5818525 L184.976609,47.7862424 C186.803518,49.0803024 188.582823,50.0603478 190.31458,50.7264081 C192.046337,51.3924684 193.768553,51.7254936 195.481279,51.7254936 C197.003703,51.7254936 198.202593,51.4400434 199.077987,50.8691346 C199.95338,50.2982258 200.391071,49.4799354 200.391071,48.4142389 C200.391071,47.3485424 199.87726,46.5683121 198.849624,46.0735244 C197.821989,45.5787368 196.147348,45.0078365 193.825652,44.3608065 C191.884562,43.8279583 190.228951,43.314148 188.85877,42.8193604 C187.488589,42.3245727 186.384848,41.7631875 185.547515,41.1351878 C184.710182,40.5071881 184.101222,39.7840477 183.720616,38.9657451 C183.34001,38.1474424 183.14971,37.167397 183.14971,36.0255793 C183.14971,34.5031558 183.444675,33.1329951 184.034614,31.9150563 C184.624554,30.6971175 185.452359,29.659982 186.518055,28.8036187 C187.583752,27.9472555 188.830217,27.2907202 190.25749,26.8339931 C191.684762,26.3772661 193.235707,26.148906 194.910373,26.148906 C197.155948,26.148906 199.258764,26.4724161 201.218884,27.1194461 C203.179005,27.7664761 204.97734,28.8131266 206.613946,30.259429 L203.531053,34.8837674 C202.00863,33.7419497 200.533804,32.9046293 199.106532,32.3717811 C197.67926,31.8389328 196.261524,31.5725127 194.853283,31.5725127 C193.559223,31.5725127 192.474512,31.8389328 191.599119,32.3717811 C190.723725,32.9046293 190.286035,33.7609797 190.286035,34.940858 C190.286035,35.4737062 190.3907,35.9113964 190.600033,36.2539417 C190.809366,36.596487 191.142392,36.9009671 191.599119,37.1673912 C192.055846,37.4338154 192.655291,37.6907205 193.397472,37.9381143 C194.139654,38.1855081 195.062609,38.4424133 196.166366,38.7088374 C198.221638,39.2416856 199.981914,39.7745259 201.447247,40.3073741 C202.912579,40.8402223 204.11147,41.4491826 205.043954,42.1342732 C205.976439,42.8193638 206.661519,43.6091092 207.099216,44.503533 C207.536913,45.3979568 207.755758,46.4731523 207.755758,47.7291518 C207.755758,50.6598171 206.671047,52.9719631 204.501594,54.6656593 C202.33214,56.3593555 199.382489,57.2061909 195.652551,57.2061909 Z" id="s" fill="#36474F"></path>
                <path d="M181.620951,55.0938388 C180.593315,55.5505659 179.337334,56.0072861 177.852971,56.4640131 C176.368609,56.9207402 174.808148,57.1491003 173.171542,57.1491003 C172.105846,57.1491003 171.106771,57.0158902 170.174286,56.7494661 C169.241802,56.483042 168.423511,56.0548668 167.71939,55.4649277 C167.01527,54.8749886 166.453884,54.1137882 166.035218,53.1813038 C165.616551,52.2488194 165.407221,51.1165339 165.407221,49.7844133 L165.407221,32.6001435 L161.46797,32.6001435 L161.46797,26.7198119 L165.407221,26.7198119 L165.407221,17.0144104 L173.057361,17.0144104 L173.057361,26.7198119 L179.337327,26.7198119 L179.337327,32.6001435 L173.057361,32.6001435 L173.057361,47.2153364 C173.057361,48.2810329 173.333296,49.0327182 173.885175,49.470415 C174.437053,49.9081117 175.112619,50.1269568 175.911891,50.1269568 C176.711164,50.1269568 177.491394,49.9937468 178.252606,49.7273227 C179.013817,49.4608985 179.622778,49.2325384 180.079505,49.0422355 L181.620951,55.0938388 Z" id="t" fill="#36474F"></path>
                <path d="M158.569036,56.6352849 L150.918896,56.6352849 L150.918896,39.8506493 C150.918896,37.4908928 150.481206,35.749647 149.605813,34.6268597 C148.730419,33.5040723 147.493468,32.942687 145.894924,32.942687 C145.209833,32.942687 144.486693,33.0949271 143.725481,33.3994118 C142.964269,33.7038965 142.241129,34.1320717 141.556038,34.6839503 C140.870948,35.2358288 140.242957,35.8923641 139.672049,36.6535759 C139.10114,37.4147876 138.68248,38.252108 138.416056,39.1655622 L138.416056,56.6352849 L130.765915,56.6352849 L130.765915,14.9591489 L138.416056,14.9591489 L138.416056,32.2575999 C139.519813,30.3165099 141.013668,28.8226542 142.897667,27.775988 C144.781667,26.7293218 146.865453,26.2059966 149.149088,26.2059966 C151.090178,26.2059966 152.669669,26.5390217 153.887607,27.205082 C155.105546,27.8711423 156.057047,28.7560377 156.742137,29.8597948 C157.427228,30.9635519 157.902978,32.2195324 158.169402,33.6277742 C158.435826,35.036016 158.569036,36.4822967 158.569036,37.9666596 L158.569036,56.6352849 Z" id="h" fill="#36474F"></path>
                <path d="M107.542729,56.8065567 C105.525518,56.8065567 103.698637,56.4069265 102.062032,55.6076542 C100.425427,54.8083818 99.0076909,53.7141563 97.8087824,52.3249448 C96.6098738,50.9357334 95.6869184,49.3276976 95.0398884,47.5007894 C94.3928584,45.6738811 94.0693482,43.7328202 94.0693482,41.6775484 C94.0693482,39.5080949 94.4118884,37.490914 95.096979,35.6259451 C95.7820696,33.7609763 96.73357,32.1243955 97.9515089,30.7161538 C99.1694477,29.307912 100.634758,28.2041715 102.347485,27.4048991 C104.060211,26.6056268 105.944182,26.2059966 107.999454,26.2059966 C110.32115,26.2059966 112.357361,26.7293218 114.108148,27.775988 C115.858935,28.8226542 117.305216,30.2213598 118.447033,31.9721469 L118.447033,26.7198119 L125.126633,26.7198119 L125.126633,55.20802 C125.126633,57.4155341 124.707973,59.3946551 123.87064,61.1454421 C123.033307,62.8962292 121.881992,64.3805699 120.416659,65.5985087 C118.951326,66.8164475 117.200565,67.748918 115.164324,68.395948 C113.128082,69.042978 110.911086,69.3664881 108.513269,69.3664881 C105.240059,69.3664881 102.490222,68.8241329 100.263678,67.7394061 C98.0371336,66.6546793 96.1246177,65.1227636 94.526073,63.143613 L98.6936866,59.0901806 C99.8355043,60.4984224 101.27227,61.6021629 103.004027,62.4014353 C104.735783,63.2007076 106.572179,63.6003378 108.513269,63.6003378 C109.693148,63.6003378 110.825433,63.4385827 111.91016,63.1150677 C112.994887,62.7915527 113.955902,62.2872575 114.793235,61.6021669 C115.630568,60.9170763 116.287103,60.0416959 116.762861,58.9759994 C117.238618,57.9103029 117.476493,56.6543224 117.476493,55.20802 L117.476493,51.4400406 C116.486918,53.1527671 115.097727,54.4753527 113.30888,55.4078371 C111.520032,56.3403215 109.598001,56.8065567 107.542729,56.8065567 Z M110.111806,50.6978628 C110.949139,50.6978628 111.748399,50.5646528 112.509611,50.2982286 C113.270823,50.0318045 113.974933,49.6702343 114.621963,49.2135073 C115.268993,48.7567802 115.839894,48.22394 116.334681,47.6149706 C116.829469,47.0060011 117.210069,46.3589808 117.476493,45.6738902 L117.476493,38.5375656 C116.791403,36.7867785 115.716207,35.3785579 114.250874,34.3128614 C112.785542,33.2471649 111.253626,32.7143247 109.655081,32.7143247 C108.475203,32.7143247 107.409523,32.9712298 106.458008,33.4850477 C105.506493,33.9988657 104.688203,34.683946 104.003112,35.5403092 C103.318022,36.3966725 102.794696,37.3767179 102.433121,38.480475 C102.071545,39.5842321 101.89076,40.7260326 101.89076,41.9059108 C101.89076,43.1238497 102.10009,44.2656502 102.518757,45.3313467 C102.937423,46.3970431 103.517838,47.3295136 104.26002,48.1287859 C105.002201,48.9280583 105.868067,49.5560486 106.857642,50.0127756 C107.847217,50.4695027 108.931928,50.6978628 110.111806,50.6978628 Z" id="g" fill="#36474F"></path>
                <polygon id="i" fill="#36474F" points="82.7338402 56.6352849 82.7338402 26.7198119 90.3839802 26.7198119 90.3839802 56.6352849"></polygon>
                <path d="M80.4500691,55.6647448 C80.4120085,55.7028054 80.1836484,55.7979554 79.7649819,55.9501978 C79.3463155,56.1024401 78.7944452,56.2641952 78.1093546,56.4354678 C77.424264,56.6067405 76.6535487,56.7589806 75.7971854,56.8921926 C74.9408222,57.0254047 74.0939868,57.0920097 73.2566539,57.0920097 C72.038715,57.0920097 70.9635195,56.9207396 70.0310351,56.5781943 C69.0985507,56.235649 68.3088053,55.7694138 67.6617753,55.1794747 C67.0147453,54.5895356 66.5199651,53.9139703 66.1774198,53.1527585 C65.8348745,52.3915467 65.6636044,51.5732563 65.6636044,50.6978628 L65.6636044,27.1194461 C65.6636044,26.2821132 65.5969994,25.4828528 65.4637873,24.721641 C65.3305753,23.9604293 65.0831851,23.294379 64.7216096,22.7234701 C64.360034,22.1525613 63.8652537,21.7053561 63.237254,21.3818411 C62.6092543,21.0583261 61.8195089,20.896571 60.8679942,20.896571 C59.0030254,20.896571 57.6994698,21.4865013 56.9572883,22.6663795 C56.2151068,23.8462578 55.8249917,25.3876885 55.7869311,27.2907179 L55.7869311,28.3183487 L60.753813,28.3183487 L60.753813,34.1415896 L55.7869311,34.1415896 L55.7869311,56.6352849 L48.136791,56.6352849 L48.136791,34.1415896 L44.1975398,34.1415896 L44.1975398,28.3183487 L48.136791,28.3183487 L48.136791,25.8063624 C48.136791,22.1144853 49.2405315,19.288529 51.4480457,17.3284087 C53.6555598,15.3682884 56.7193912,14.3882429 60.6396318,14.3882429 C64.9785389,14.3882429 68.1755804,15.4158634 70.2308522,17.4711352 C72.286124,19.526407 73.3137444,22.2286682 73.3137444,25.578 L73.3137444,46.8727928 C73.3137444,47.2533987 73.3613195,47.6435139 73.4564709,48.04315 C73.5516224,48.4427862 73.7133775,48.8043564 73.941741,49.1278714 C74.1701045,49.4513864 74.4555547,49.7178065 74.7981,49.9271397 C75.1406453,50.136473 75.5593055,50.241138 76.0540931,50.241138 C76.3966384,50.241138 76.7582086,50.203078 77.1388145,50.1269568 C77.5194204,50.0508357 77.8714755,49.9652006 78.1949905,49.8700492 C78.5185055,49.7748977 78.7944406,49.6892626 79.0228042,49.6131415 L79.3653478,49.4989603 L80.4500691,55.6647448 Z" id="fl" fill="#36474F"></path>
                <path d="M41.184425,56.6352849 L33.5342849,56.6352849 L33.5342849,39.8506493 C33.5342849,37.4528322 33.1156247,35.7020714 32.2782918,34.5983144 C31.4409588,33.4945573 30.2801283,32.942687 28.7957654,32.942687 C28.0345536,32.942687 27.2543232,33.0949271 26.4550509,33.3994118 C25.6557785,33.7038965 24.9040932,34.1320717 24.1999723,34.6839503 C23.4958514,35.2358288 22.8583461,35.8923641 22.2874373,36.6535759 C21.7165284,37.4147876 21.2978682,38.252108 21.0314441,39.1655622 L21.0314441,56.6352849 L13.3813041,56.6352849 L13.3813041,26.7198119 L20.2892664,26.7198119 L20.2892664,32.2575999 C21.3930234,30.3545705 22.9915442,28.8702298 25.0848765,27.8045333 C27.1782089,26.7388368 29.53793,26.2059966 32.1641106,26.2059966 C34.0290794,26.2059966 35.5514801,26.5485367 36.7313584,27.2336273 C37.9112366,27.9187179 38.8246771,28.8131283 39.4717071,29.9168854 C40.1187371,31.0206425 40.5659423,32.276623 40.8133361,33.6848648 C41.0607299,35.0931066 41.184425,36.5203572 41.184425,37.9666596 L41.184425,56.6352849 Z" id="n" fill="#36474F"></path>
                <polygon id="i" fill="#36474F" points="0.0918817287 56.6352849 0.0918817287 26.7198119 7.74202177 26.7198119 7.74202177 56.6352849"></polygon>
            </g>
        </g>
    </g>
</svg>